<svg xmlns="http://www.w3.org/2000/svg" xmlns:xlink="http://www.w3.org/1999/xlink" version="1.1" class="marks" width="853" height="482" viewBox="0 0 853 482"><style>@font-face{font-family:'Hanken Grotesk';src:url('../assets/fonts/HankenGrotesk-Regular.ttf') format('truetype');font-weight:400;font-style:normal;}@font-face{font-family:'Hanken Grotesk';src:url('../assets/fonts/HankenGrotesk-Medium.ttf') format('truetype');font-weight:500;font-style:normal;}@font-face{font-family:'Hanken Grotesk';src:url('../assets/fonts/HankenGrotesk-SemiBold.ttf') format('truetype');font-weight:600;font-style:normal;}@font-face{font-family:'Hanken Grotesk';src:url('../assets/fonts/HankenGrotesk-Bold.ttf') format('truetype');font-weight:700;font-style:normal;}</style><rect width="853" height="482" fill="white"/><g fill="none" stroke-miterlimit="10" transform="translate(48,44)"><g class="mark-group role-frame root" role="graphics-object" aria-roledescription="group mark container"><g transform="translate(0,0)"><path class="background" aria-hidden="true" d="M0.5,0.5h800v400h-800Z" stroke="#d9e2ec"/><g><g class="mark-group role-axis" aria-hidden="true"><g transform="translate(0.5,0.5)"><path class="background" aria-hidden="true" d="M0,0h0v0h0Z" pointer-events="none"/><g><g class="mark-rule role-axis-grid" pointer-events="none"><line transform="translate(0,400)" x2="800" y2="0" stroke="#ddd" stroke-width="1" opacity="1"/><line transform="translate(0,356)" x2="800" y2="0" stroke="#ddd" stroke-width="1" opacity="1"/><line transform="translate(0,311)" x2="800" y2="0" stroke="#ddd" stroke-width="1" opacity="1"/><line transform="translate(0,267)" x2="800" y2="0" stroke="#ddd" stroke-width="1" opacity="1"/><line transform="translate(0,222)" x2="800" y2="0" stroke="#ddd" stroke-width="1" opacity="1"/><line transform="translate(0,178)" x2="800" y2="0" stroke="#ddd" stroke-width="1" opacity="1"/><line transform="translate(0,133)" x2="800" y2="0" stroke="#ddd" stroke-width="1" opacity="1"/><line transform="translate(0,89)" x2="800" y2="0" stroke="#ddd" stroke-width="1" opacity="1"/><line transform="translate(0,44)" x2="800" y2="0" stroke="#ddd" stroke-width="1" opacity="1"/><line transform="translate(0,0)" x2="800" y2="0" stroke="#ddd" stroke-width="1" opacity="1"/></g></g><path class="foreground" aria-hidden="true" d="" pointer-events="none" display="none"/></g></g><g class="mark-group role-axis" role="graphics-symbol" aria-roledescription="axis" aria-label="X-axis titled 'Plan' for a discrete scale with 3 values: Free, Pro, Team"><g transform="translate(0.5,400.5)"><path class="background" aria-hidden="true" d="M0,0h0v0h0Z" pointer-events="none"/><g><g class="mark-rule role-axis-tick" pointer-events="none"><line transform="translate(133,0)" x2="0" y2="5" stroke="#888" stroke-width="1" opacity="1"/><line transform="translate(400,0)" x2="0" y2="5" stroke="#888" stroke-width="1" opacity="1"/><line transform="translate(666,0)" x2="0" y2="5" stroke="#888" stroke-width="1" opacity="1"/></g><g class="mark-text role-axis-label" pointer-events="none"><text text-anchor="middle" transform="translate(132.83333333333334,16)" font-family="Hanken Grotesk" font-size="11px" fill="#000" opacity="1">Free</text><text text-anchor="middle" transform="translate(399.5,16)" font-family="Hanken Grotesk" font-size="11px" fill="#000" opacity="1">Pro</text><text text-anchor="middle" transform="translate(666.1666666666667,16)" font-family="Hanken Grotesk" font-size="11px" fill="#000" opacity="1">Team</text></g><g class="mark-rule role-axis-domain" pointer-events="none"><line transform="translate(0,0)" x2="800" y2="0" stroke="#888" stroke-width="1" opacity="1"/></g><g class="mark-text role-axis-title" pointer-events="none"><text text-anchor="middle" transform="translate(400,31)" font-family="Hanken Grotesk" font-size="12px" font-weight="600" fill="#000" opacity="1">Plan</text></g></g><path class="foreground" aria-hidden="true" d="" pointer-events="none" display="none"/></g></g><g class="mark-group role-axis" role="graphics-symbol" aria-roledescription="axis" aria-label="Y-axis titled 'Sessions' for a linear scale with values from 0 to 180"><g transform="translate(0.5,0.5)"><path class="background" aria-hidden="true" d="M0,0h0v0h0Z" pointer-events="none"/><g><g class="mark-rule role-axis-tick" pointer-events="none"><line transform="translate(0,400)" x2="-5" y2="0" stroke="#888" stroke-width="1" opacity="1"/><line transform="translate(0,356)" x2="-5" y2="0" stroke="#888" stroke-width="1" opacity="1"/><line transform="translate(0,311)" x2="-5" y2="0" stroke="#888" stroke-width="1" opacity="1"/><line transform="translate(0,267)" x2="-5" y2="0" stroke="#888" stroke-width="1" opacity="1"/><line transform="translate(0,222)" x2="-5" y2="0" stroke="#888" stroke-width="1" opacity="1"/><line transform="translate(0,178)" x2="-5" y2="0" stroke="#888" stroke-width="1" opacity="1"/><line transform="translate(0,133)" x2="-5" y2="0" stroke="#888" stroke-width="1" opacity="1"/><line transform="translate(0,89)" x2="-5" y2="0" stroke="#888" stroke-width="1" opacity="1"/><line transform="translate(0,44)" x2="-5" y2="0" stroke="#888" stroke-width="1" opacity="1"/><line transform="translate(0,0)" x2="-5" y2="0" stroke="#888" stroke-width="1" opacity="1"/></g><g class="mark-text role-axis-label" pointer-events="none"><text text-anchor="end" transform="translate(-7,403)" font-family="Hanken Grotesk" font-size="11px" fill="#000" opacity="1">0</text><text text-anchor="end" transform="translate(-7,358.55555555555554)" font-family="Hanken Grotesk" font-size="11px" fill="#000" opacity="1">20</text><text text-anchor="end" transform="translate(-7,314.11111111111114)" font-family="Hanken Grotesk" font-size="11px" fill="#000" opacity="1">40</text><text text-anchor="end" transform="translate(-7,269.6666666666667)" font-family="Hanken Grotesk" font-size="11px" fill="#000" opacity="1">60</text><text text-anchor="end" transform="translate(-7,225.22222222222223)" font-family="Hanken Grotesk" font-size="11px" fill="#000" opacity="1">80</text><text text-anchor="end" transform="translate(-7,180.77777777777777)" font-family="Hanken Grotesk" font-size="11px" fill="#000" opacity="1">100</text><text text-anchor="end" transform="translate(-7,136.33333333333334)" font-family="Hanken Grotesk" font-size="11px" fill="#000" opacity="1">120</text><text text-anchor="end" transform="translate(-7,91.88888888888889)" font-family="Hanken Grotesk" font-size="11px" fill="#000" opacity="1">140</text><text text-anchor="end" transform="translate(-7,47.444444444444464)" font-family="Hanken Grotesk" font-size="11px" fill="#000" opacity="1">160</text><text text-anchor="end" transform="translate(-7,3)" font-family="Hanken Grotesk" font-size="11px" fill="#000" opacity="1">180</text></g><g class="mark-rule role-axis-domain" pointer-events="none"><line transform="translate(0,400)" x2="0" y2="-400" stroke="#888" stroke-width="1" opacity="1"/></g><g class="mark-text role-axis-title" pointer-events="none"><text text-anchor="middle" transform="translate(-29.35302734375,200) rotate(-90) translate(0,-3)" font-family="Hanken Grotesk" font-size="12px" font-weight="600" fill="#000" opacity="1">Sessions</text></g></g><path class="foreground" aria-hidden="true" d="" pointer-events="none" display="none"/></g></g><g class="mark-symbol role-mark layer_0_layer_0_marks" role="graphics-object" aria-roledescription="symbol mark container"><path aria-label="Plan: Free; Sessions: 29" role="graphics-symbol" aria-roledescription="point" transform="translate(133.33333333333334,335.55555555555554)" d="M2.739,0A2.739,2.739,0,1,1,-2.739,0A2.739,2.739,0,1,1,2.739,0" stroke="#4c78a8" stroke-width="2" opacity="0.7"/><path aria-label="Plan: Free; Sessions: 25" role="graphics-symbol" aria-roledescription="point" transform="translate(133.33333333333334,344.44444444444446)" d="M2.739,0A2.739,2.739,0,1,1,-2.739,0A2.739,2.739,0,1,1,2.739,0" stroke="#4c78a8" stroke-width="2" opacity="0.7"/><path aria-label="Plan: Free; Sessions: 28" role="graphics-symbol" aria-roledescription="point" transform="translate(133.33333333333334,337.77777777777777)" d="M2.739,0A2.739,2.739,0,1,1,-2.739,0A2.739,2.739,0,1,1,2.739,0" stroke="#4c78a8" stroke-width="2" opacity="0.7"/><path aria-label="Plan: Free; Sessions: 25" role="graphics-symbol" aria-roledescription="point" transform="translate(133.33333333333334,344.44444444444446)" d="M2.739,0A2.739,2.739,0,1,1,-2.739,0A2.739,2.739,0,1,1,2.739,0" stroke="#4c78a8" stroke-width="2" opacity="0.7"/><path aria-label="Plan: Free; Sessions: 44" role="graphics-symbol" aria-roledescription="point" transform="translate(133.33333333333334,302.22222222222223)" d="M2.739,0A2.739,2.739,0,1,1,-2.739,0A2.739,2.739,0,1,1,2.739,0" stroke="#4c78a8" stroke-width="2" opacity="0.7"/><path aria-label="Plan: Free; Sessions: 28" role="graphics-symbol" aria-roledescription="point" transform="translate(133.33333333333334,337.77777777777777)" d="M2.739,0A2.739,2.739,0,1,1,-2.739,0A2.739,2.739,0,1,1,2.739,0" stroke="#4c78a8" stroke-width="2" opacity="0.7"/><path aria-label="Plan: Free; Sessions: 24" role="graphics-symbol" aria-roledescription="point" transform="translate(133.33333333333334,346.6666666666667)" d="M2.739,0A2.739,2.739,0,1,1,-2.739,0A2.739,2.739,0,1,1,2.739,0" stroke="#4c78a8" stroke-width="2" opacity="0.7"/><path aria-label="Plan: Pro; Sessions: 83" role="graphics-symbol" aria-roledescription="point" transform="translate(400,215.55555555555554)" d="M2.739,0A2.739,2.739,0,1,1,-2.739,0A2.739,2.739,0,1,1,2.739,0" stroke="#4c78a8" stroke-width="2" opacity="0.7"/><path aria-label="Plan: Pro; Sessions: 58" role="graphics-symbol" aria-roledescription="point" transform="translate(400,271.11111111111114)" d="M2.739,0A2.739,2.739,0,1,1,-2.739,0A2.739,2.739,0,1,1,2.739,0" stroke="#4c78a8" stroke-width="2" opacity="0.7"/><path aria-label="Plan: Pro; Sessions: 91" role="graphics-symbol" aria-roledescription="point" transform="translate(400,197.77777777777777)" d="M2.739,0A2.739,2.739,0,1,1,-2.739,0A2.739,2.739,0,1,1,2.739,0" stroke="#4c78a8" stroke-width="2" opacity="0.7"/><path aria-label="Plan: Pro; Sessions: 74" role="graphics-symbol" aria-roledescription="point" transform="translate(400,235.55555555555557)" d="M2.739,0A2.739,2.739,0,1,1,-2.739,0A2.739,2.739,0,1,1,2.739,0" stroke="#4c78a8" stroke-width="2" opacity="0.7"/><path aria-label="Plan: Pro; Sessions: 64" role="graphics-symbol" aria-roledescription="point" transform="translate(400,257.77777777777777)" d="M2.739,0A2.739,2.739,0,1,1,-2.739,0A2.739,2.739,0,1,1,2.739,0" stroke="#4c78a8" stroke-width="2" opacity="0.7"/><path aria-label="Plan: Team; Sessions: 167" role="graphics-symbol" aria-roledescription="point" transform="translate(666.6666666666667,28.888888888888875)" d="M2.739,0A2.739,2.739,0,1,1,-2.739,0A2.739,2.739,0,1,1,2.739,0" stroke="#4c78a8" stroke-width="2" opacity="0.7"/></g><g class="mark-rule role-mark layer_0_layer_1_layer_0_marks" aria-hidden="true"><line transform="translate(133.33333333333334,395.55555555555554)" x2="0" y2="-10.555555555555543" stroke="black"/><line transform="translate(400,388.88888888888886)" x2="0" y2="-24.4444444444444" stroke="black"/><line transform="translate(666.6666666666667,355.55555555555554)" x2="0" y2="-49.44444444444446" stroke="black"/></g><g class="mark-rule role-mark layer_0_layer_1_layer_1_marks" aria-hidden="true"><line transform="translate(133.33333333333334,370.55555555555554)" x2="0" y2="-21.66666666666663" stroke="black"/><line transform="translate(400,331.1111111111111)" x2="0" y2="-35.55555555555554" stroke="black"/><line transform="translate(666.6666666666667,205.55555555555554)" x2="0" y2="-116.66666666666666" stroke="black"/></g><g class="mark-rect role-mark layer_1_layer_0_marks" role="graphics-object" aria-roledescription="rect mark container"><path aria-label="Plan: Free; Sessions: 6.75; upper_box_sessions: 13.25; Max of Sessions: 44; Q3 of Sessions: 13.25; Median of Sessions: 9; Q1 of Sessions: 6.75; Min of Sessions: 2" role="graphics-symbol" aria-roledescription="box" d="M93.33333333333334,370.55555555555554h80v14.444444444444457h-80Z" fill="#4c78a8"/><path aria-label="Plan: Pro; Sessions: 16; upper_box_sessions: 31; Max of Sessions: 91; Q3 of Sessions: 31; Median of Sessions: 24; Q1 of Sessions: 16; Min of Sessions: 5" role="graphics-symbol" aria-roledescription="box" d="M360,331.1111111111111h80v33.33333333333337h-80Z" fill="#4c78a8"/><path aria-label="Plan: Team; Sessions: 42.25; upper_box_sessions: 87.5; Max of Sessions: 167; Q3 of Sessions: 87.5; Median of Sessions: 59; Q1 of Sessions: 42.25; Min of Sessions: 20" role="graphics-symbol" aria-roledescription="box" d="M626.6666666666667,205.55555555555554h80v100.55555555555554h-80Z" fill="#4c78a8"/></g><g class="mark-rect role-mark layer_1_layer_1_marks" aria-hidden="true"><path d="M93.33333333333334,379.5h80v1h-80Z" fill="white" opacity="0.7"/><path d="M360,346.1666666666667h80v1h-80Z" fill="white" opacity="0.7"/><path d="M626.6666666666667,268.3888888888889h80v1h-80Z" fill="white" opacity="0.7"/></g><g class="mark-group role-title"><g transform="translate(400,-39)"><path class="background" aria-hidden="true" d="M0,0h0v0h0Z" pointer-events="none"/><g><g class="mark-text role-title-text" role="graphics-symbol" aria-roledescription="title" aria-label="Title text 'Sessions per Account'" pointer-events="none"><text text-anchor="middle" transform="translate(0,12)" font-family="Hanken Grotesk" font-size="15px" font-weight="600" fill="#000" opacity="1">Sessions per Account</text></g><g class="mark-text role-title-subtitle" role="graphics-symbol" aria-roledescription="subtitle" aria-label="Subtitle text 'Median, quartiles and outlying accounts for each plan'" pointer-events="none"><text text-anchor="middle" transform="translate(0,27)" font-family="Hanken Grotesk" font-size="12px" font-weight="400" fill="#000" opacity="1">Median, quartiles and outlying accounts for each plan</text></g></g><path class="foreground" aria-hidden="true" d="" pointer-events="none" display="none"/></g></g></g><path class="foreground" aria-hidden="true" d="" display="none"/></g></g></g></svg>