<svg xmlns="http://www.w3.org/2000/svg" xmlns:xlink="http://www.w3.org/1999/xlink" version="1.1" class="marks" width="863" height="464" viewBox="0 0 863 464"><rect width="863" height="464" fill="white"/><g fill="none" stroke-miterlimit="10" transform="translate(58,27)"><g class="mark-group role-frame root" role="graphics-object" aria-roledescription="group mark container"><g transform="translate(0,0)"><path class="background" aria-hidden="true" d="M0.5,0.5h800v400h-800Z" stroke="#d9e2ec"/><g><g class="mark-group role-axis" aria-hidden="true"><g transform="translate(0.5,0.5)"><path class="background" aria-hidden="true" d="M0,0h0v0h0Z" pointer-events="none"/><g><g class="mark-rule role-axis-grid" pointer-events="none"><line transform="translate(0,400)" x2="800" y2="0" stroke="#ddd" stroke-width="1" opacity="1"/><line transform="translate(0,350)" x2="800" y2="0" stroke="#ddd" stroke-width="1" opacity="1"/><line transform="translate(0,300)" x2="800" y2="0" stroke="#ddd" stroke-width="1" opacity="1"/><line transform="translate(0,250)" x2="800" y2="0" stroke="#ddd" stroke-width="1" opacity="1"/><line transform="translate(0,200)" x2="800" y2="0" stroke="#ddd" stroke-width="1" opacity="1"/><line transform="translate(0,150)" x2="800" y2="0" stroke="#ddd" stroke-width="1" opacity="1"/><line transform="translate(0,100)" x2="800" y2="0" stroke="#ddd" stroke-width="1" opacity="1"/><line transform="translate(0,50)" x2="800" y2="0" stroke="#ddd" stroke-width="1" opacity="1"/><line transform="translate(0,0)" x2="800" y2="0" stroke="#ddd" stroke-width="1" opacity="1"/></g></g><path class="foreground" aria-hidden="true" d="" pointer-events="none" display="none"/></g></g><g class="mark-group role-axis" role="graphics-symbol" aria-roledescription="axis" aria-label="X-axis titled 'Month' for a discrete scale with 3 values: 2026-01, 2026-02, 2026-03"><g transform="translate(0.5,400.5)"><path class="background" aria-hidden="true" d="M0,0h0v0h0Z" pointer-events="none"/><g><g class="mark-rule role-axis-tick" pointer-events="none"><line transform="translate(133,0)" x2="0" y2="5" stroke="#888" stroke-width="1" opacity="1"/><line transform="translate(400,0)" x2="0" y2="5" stroke="#888" stroke-width="1" opacity="1"/><line transform="translate(667,0)" x2="0" y2="5" stroke="#888" stroke-width="1" opacity="1"/></g><g class="mark-text role-axis-label" pointer-events="none"><text text-anchor="middle" transform="translate(133.33333333333331,15)" font-family="sans-serif" font-size="10px" fill="#000" opacity="1">2026-01</text><text text-anchor="middle" transform="translate(400,15)" font-family="sans-serif" font-size="10px" fill="#000" opacity="1">2026-02</text><text text-anchor="middle" transform="translate(666.6666666666667,15)" font-family="sans-serif" font-size="10px" fill="#000" opacity="1">2026-03</text></g><g class="mark-rule role-axis-domain" pointer-events="none"><line transform="translate(0,0)" x2="800" y2="0" stroke="#888" stroke-width="1" opacity="1"/></g><g class="mark-text role-axis-title" pointer-events="none"><text text-anchor="middle" transform="translate(400,30)" font-family="sans-serif" font-size="11px" font-weight="bold" fill="#000" opacity="1">Month</text></g></g><path class="foreground" aria-hidden="true" d="" pointer-events="none" display="none"/></g></g><g class="mark-group role-axis" role="graphics-symbol" aria-roledescription="axis" aria-label="Y-axis titled 'Bookings' for a linear scale with values from 0 to 80,000"><g transform="translate(0.5,0.5)"><path class="background" aria-hidden="true" d="M0,0h0v0h0Z" pointer-events="none"/><g><g class="mark-rule role-axis-tick" pointer-events="none"><line transform="translate(0,400)" x2="-5" y2="0" stroke="#888" stroke-width="1" opacity="1"/><line transform="translate(0,350)" x2="-5" y2="0" stroke="#888" stroke-width="1" opacity="1"/><line transform="translate(0,300)" x2="-5" y2="0" stroke="#888" stroke-width="1" opacity="1"/><line transform="translate(0,250)" x2="-5" y2="0" stroke="#888" stroke-width="1" opacity="1"/><line transform="translate(0,200)" x2="-5" y2="0" stroke="#888" stroke-width="1" opacity="1"/><line transform="translate(0,150)" x2="-5" y2="0" stroke="#888" stroke-width="1" opacity="1"/><line transform="translate(0,100)" x2="-5" y2="0" stroke="#888" stroke-width="1" opacity="1"/><line transform="translate(0,50)" x2="-5" y2="0" stroke="#888" stroke-width="1" opacity="1"/><line transform="translate(0,0)" x2="-5" y2="0" stroke="#888" stroke-width="1" opacity="1"/></g><g class="mark-text role-axis-label" pointer-events="none"><text text-anchor="end" transform="translate(-7,403)" font-family="sans-serif" font-size="10px" fill="#000" opacity="1">0</text><text text-anchor="end" transform="translate(-7,353)" font-family="sans-serif" font-size="10px" fill="#000" opacity="1">10,000</text><text text-anchor="end" transform="translate(-7,303)" font-family="sans-serif" font-size="10px" fill="#000" opacity="1">20,000</text><text text-anchor="end" transform="translate(-7,253)" font-family="sans-serif" font-size="10px" fill="#000" opacity="1">30,000</text><text text-anchor="end" transform="translate(-7,203)" font-family="sans-serif" font-size="10px" fill="#000" opacity="1">40,000</text><text text-anchor="end" transform="translate(-7,153)" font-family="sans-serif" font-size="10px" fill="#000" opacity="1">50,000</text><text text-anchor="end" transform="translate(-7,103)" font-family="sans-serif" font-size="10px" fill="#000" opacity="1">60,000</text><text text-anchor="end" transform="translate(-7,53)" font-family="sans-serif" font-size="10px" fill="#000" opacity="1">70,000</text><text text-anchor="end" transform="translate(-7,3)" font-family="sans-serif" font-size="10px" fill="#000" opacity="1">80,000</text></g><g class="mark-rule role-axis-domain" pointer-events="none"><line transform="translate(0,400)" x2="0" y2="-400" stroke="#888" stroke-width="1" opacity="1"/></g><g class="mark-text role-axis-title" pointer-events="none"><text text-anchor="middle" transform="translate(-41.5859375,200) rotate(-90) translate(0,-2)" font-family="sans-serif" font-size="11px" font-weight="bold" fill="#000" opacity="1">Bookings</text></g></g><path class="foreground" aria-hidden="true" d="" pointer-events="none" display="none"/></g></g><g class="mark-line role-mark layer_0_marks" role="graphics-object" aria-roledescription="line mark container"><path aria-label="Month: 2026-01; Bookings: 60000" role="graphics-symbol" aria-roledescription="line mark" d="M133.333,100L400,55L666.667,5" stroke="#4c78a8" stroke-width="2"/></g><g class="mark-symbol role-mark layer_1_marks" role="graphics-object" aria-roledescription="symbol mark container"><path aria-label="Month: 2026-02; Bookings: 69000" role="graphics-symbol" aria-roledescription="point" transform="translate(400,54.999999999999986)" d="M2.739,0A2.739,2.739,0,1,1,-2.739,0A2.739,2.739,0,1,1,2.739,0" fill="#4c78a8" stroke-width="2" opacity="1"/><path aria-label="Month: 2026-03; Bookings: 79000" role="graphics-symbol" aria-roledescription="point" transform="translate(666.6666666666667,4.999999999999982)" d="M2.739,0A2.739,2.739,0,1,1,-2.739,0A2.739,2.739,0,1,1,2.739,0" fill="#4c78a8" stroke-width="2" opacity="1"/><path aria-label="Month: 2026-01; Bookings: 60000" role="graphics-symbol" aria-roledescription="point" transform="translate(133.33333333333331,100)" d="M2.739,0A2.739,2.739,0,1,1,-2.739,0A2.739,2.739,0,1,1,2.739,0" fill="#4c78a8" stroke-width="2" opacity="1"/></g><g class="mark-group role-title"><g transform="translate(400,-22)"><path class="background" aria-hidden="true" d="M0,0h0v0h0Z" pointer-events="none"/><g><g class="mark-text role-title-text" role="graphics-symbol" aria-roledescription="title" aria-label="Title text 'Bookings Trend'" pointer-events="none"><text text-anchor="middle" transform="translate(0,10)" font-family="sans-serif" font-size="13px" font-weight="bold" fill="#000" opacity="1">Bookings Trend</text></g></g><path class="foreground" aria-hidden="true" d="" pointer-events="none" display="none"/></g></g></g><path class="foreground" aria-hidden="true" d="" display="none"/></g></g></g></svg>