<svg xmlns="http://www.w3.org/2000/svg" xmlns:xlink="http://www.w3.org/1999/xlink" version="1.1" class="marks" width="952" height="468" viewBox="0 0 952 468"><style>@font-face{font-family:'Hanken Grotesk';src:url('../assets/fonts/HankenGrotesk-Regular.ttf') format('truetype');font-weight:400;font-style:normal;}@font-face{font-family:'Hanken Grotesk';src:url('../assets/fonts/HankenGrotesk-Medium.ttf') format('truetype');font-weight:500;font-style:normal;}@font-face{font-family:'Hanken Grotesk';src:url('../assets/fonts/HankenGrotesk-SemiBold.ttf') format('truetype');font-weight:600;font-style:normal;}@font-face{font-family:'Hanken Grotesk';src:url('../assets/fonts/HankenGrotesk-Bold.ttf') format('truetype');font-weight:700;font-style:normal;}</style><rect width="952" height="468" fill="white"/><g fill="none" stroke-miterlimit="10" transform="translate(63,30)"><g class="mark-group role-frame root" role="graphics-object" aria-roledescription="group mark container"><g transform="translate(0,0)"><path class="background" aria-hidden="true" d="M0.5,0.5h800v400h-800Z" stroke="#d9e2ec"/><g><g class="mark-group role-axis" aria-hidden="true"><g transform="translate(0.5,400.5)"><path class="background" aria-hidden="true" d="M0,0h0v0h0Z" pointer-events="none"/><g><g class="mark-rule role-axis-grid" pointer-events="none"><line transform="translate(0,-400)" x2="0" y2="400" stroke="#ddd" stroke-width="1" opacity="1"/><line transform="translate(31,-400)" x2="0" y2="400" stroke="#ddd" stroke-width="1" opacity="1"/><line transform="translate(62,-400)" x2="0" y2="400" stroke="#ddd" stroke-width="1" opacity="1"/><line transform="translate(92,-400)" x2="0" y2="400" stroke="#ddd" stroke-width="1" opacity="1"/><line transform="translate(123,-400)" x2="0" y2="400" stroke="#ddd" stroke-width="1" opacity="1"/><line transform="translate(154,-400)" x2="0" y2="400" stroke="#ddd" stroke-width="1" opacity="1"/><line transform="translate(185,-400)" x2="0" y2="400" stroke="#ddd" stroke-width="1" opacity="1"/><line transform="translate(215,-400)" x2="0" y2="400" stroke="#ddd" stroke-width="1" opacity="1"/><line transform="translate(246,-400)" x2="0" y2="400" stroke="#ddd" stroke-width="1" opacity="1"/><line transform="translate(277,-400)" x2="0" y2="400" stroke="#ddd" stroke-width="1" opacity="1"/><line transform="translate(308,-400)" x2="0" y2="400" stroke="#ddd" stroke-width="1" opacity="1"/><line transform="translate(338,-400)" x2="0" y2="400" stroke="#ddd" stroke-width="1" opacity="1"/><line transform="translate(369,-400)" x2="0" y2="400" stroke="#ddd" stroke-width="1" opacity="1"/><line transform="translate(400,-400)" x2="0" y2="400" stroke="#ddd" stroke-width="1" opacity="1"/><line transform="translate(431,-400)" x2="0" y2="400" stroke="#ddd" stroke-width="1" opacity="1"/><line transform="translate(462,-400)" x2="0" y2="400" stroke="#ddd" stroke-width="1" opacity="1"/><line transform="translate(492,-400)" x2="0" y2="400" stroke="#ddd" stroke-width="1" opacity="1"/><line transform="translate(523,-400)" x2="0" y2="400" stroke="#ddd" stroke-width="1" opacity="1"/><line transform="translate(554,-400)" x2="0" y2="400" stroke="#ddd" stroke-width="1" opacity="1"/><line transform="translate(585,-400)" x2="0" y2="400" stroke="#ddd" stroke-width="1" opacity="1"/><line transform="translate(615,-400)" x2="0" y2="400" stroke="#ddd" stroke-width="1" opacity="1"/><line transform="translate(646,-400)" x2="0" y2="400" stroke="#ddd" stroke-width="1" opacity="1"/><line transform="translate(677,-400)" x2="0" y2="400" stroke="#ddd" stroke-width="1" opacity="1"/><line transform="translate(708,-400)" x2="0" y2="400" stroke="#ddd" stroke-width="1" opacity="1"/><line transform="translate(738,-400)" x2="0" y2="400" stroke="#ddd" stroke-width="1" opacity="1"/><line transform="translate(769,-400)" x2="0" y2="400" stroke="#ddd" stroke-width="1" opacity="1"/><line transform="translate(800,-400)" x2="0" y2="400" stroke="#ddd" stroke-width="1" opacity="1"/></g></g><path class="foreground" aria-hidden="true" d="" pointer-events="none" display="none"/></g></g><g class="mark-group role-axis" aria-hidden="true"><g transform="translate(0.5,0.5)"><path class="background" aria-hidden="true" d="M0,0h0v0h0Z" pointer-events="none"/><g><g class="mark-rule role-axis-grid" pointer-events="none"><line transform="translate(0,400)" x2="800" y2="0" stroke="#ddd" stroke-width="1" opacity="1"/><line transform="translate(0,356)" x2="800" y2="0" stroke="#ddd" stroke-width="1" opacity="1"/><line transform="translate(0,311)" x2="800" y2="0" stroke="#ddd" stroke-width="1" opacity="1"/><line transform="translate(0,267)" x2="800" y2="0" stroke="#ddd" stroke-width="1" opacity="1"/><line transform="translate(0,222)" x2="800" y2="0" stroke="#ddd" stroke-width="1" opacity="1"/><line transform="translate(0,178)" x2="800" y2="0" stroke="#ddd" stroke-width="1" opacity="1"/><line transform="translate(0,133)" x2="800" y2="0" stroke="#ddd" stroke-width="1" opacity="1"/><line transform="translate(0,89)" x2="800" y2="0" stroke="#ddd" stroke-width="1" opacity="1"/><line transform="translate(0,44)" x2="800" y2="0" stroke="#ddd" stroke-width="1" opacity="1"/><line transform="translate(0,0)" x2="800" y2="0" stroke="#ddd" stroke-width="1" opacity="1"/></g></g><path class="foreground" aria-hidden="true" d="" pointer-events="none" display="none"/></g></g><g class="mark-group role-axis" role="graphics-symbol" aria-roledescription="axis" aria-label="X-axis titled 'Expenses' for a linear scale with values from 0 to 26,000"><g transform="translate(0.5,400.5)"><path class="background" aria-hidden="true" d="M0,0h0v0h0Z" pointer-events="none"/><g><g class="mark-rule role-axis-tick" pointer-events="none"><line transform="translate(0,0)" x2="0" y2="5" stroke="#888" stroke-width="1" opacity="1"/><line transform="translate(31,0)" x2="0" y2="5" stroke="#888" stroke-width="1" opacity="1"/><line transform="translate(62,0)" x2="0" y2="5" stroke="#888" stroke-width="1" opacity="1"/><line transform="translate(92,0)" x2="0" y2="5" stroke="#888" stroke-width="1" opacity="1"/><line transform="translate(123,0)" x2="0" y2="5" stroke="#888" stroke-width="1" opacity="1"/><line transform="translate(154,0)" x2="0" y2="5" stroke="#888" stroke-width="1" opacity="1"/><line transform="translate(185,0)" x2="0" y2="5" stroke="#888" stroke-width="1" opacity="1"/><line transform="translate(215,0)" x2="0" y2="5" stroke="#888" stroke-width="1" opacity="1"/><line transform="translate(246,0)" x2="0" y2="5" stroke="#888" stroke-width="1" opacity="1"/><line transform="translate(277,0)" x2="0" y2="5" stroke="#888" stroke-width="1" opacity="1"/><line transform="translate(308,0)" x2="0" y2="5" stroke="#888" stroke-width="1" opacity="1"/><line transform="translate(338,0)" x2="0" y2="5" stroke="#888" stroke-width="1" opacity="1"/><line transform="translate(369,0)" x2="0" y2="5" stroke="#888" stroke-width="1" opacity="1"/><line transform="translate(400,0)" x2="0" y2="5" stroke="#888" stroke-width="1" opacity="1"/><line transform="translate(431,0)" x2="0" y2="5" stroke="#888" stroke-width="1" opacity="1"/><line transform="translate(462,0)" x2="0" y2="5" stroke="#888" stroke-width="1" opacity="1"/><line transform="translate(492,0)" x2="0" y2="5" stroke="#888" stroke-width="1" opacity="1"/><line transform="translate(523,0)" x2="0" y2="5" stroke="#888" stroke-width="1" opacity="1"/><line transform="translate(554,0)" x2="0" y2="5" stroke="#888" stroke-width="1" opacity="1"/><line transform="translate(585,0)" x2="0" y2="5" stroke="#888" stroke-width="1" opacity="1"/><line transform="translate(615,0)" x2="0" y2="5" stroke="#888" stroke-width="1" opacity="1"/><line transform="translate(646,0)" x2="0" y2="5" stroke="#888" stroke-width="1" opacity="1"/><line transform="translate(677,0)" x2="0" y2="5" stroke="#888" stroke-width="1" opacity="1"/><line transform="translate(708,0)" x2="0" y2="5" stroke="#888" stroke-width="1" opacity="1"/><line transform="translate(738,0)" x2="0" y2="5" stroke="#888" stroke-width="1" opacity="1"/><line transform="translate(769,0)" x2="0" y2="5" stroke="#888" stroke-width="1" opacity="1"/><line transform="translate(800,0)" x2="0" y2="5" stroke="#888" stroke-width="1" opacity="1"/></g><g class="mark-text role-axis-label" pointer-events="none"><text text-anchor="start" transform="translate(0,16)" font-family="Hanken Grotesk" font-size="11px" fill="#000" opacity="1">0</text><text text-anchor="middle" transform="translate(30.76923076923077,16)" font-family="Hanken Grotesk" font-size="11px" fill="#000" opacity="0">1,000</text><text text-anchor="middle" transform="translate(61.53846153846154,16)" font-family="Hanken Grotesk" font-size="11px" fill="#000" opacity="1">2,000</text><text text-anchor="middle" transform="translate(92.3076923076923,16)" font-family="Hanken Grotesk" font-size="11px" fill="#000" opacity="0">3,000</text><text text-anchor="middle" transform="translate(123.07692307692308,16)" font-family="Hanken Grotesk" font-size="11px" fill="#000" opacity="1">4,000</text><text text-anchor="middle" transform="translate(153.84615384615387,16)" font-family="Hanken Grotesk" font-size="11px" fill="#000" opacity="0">5,000</text><text text-anchor="middle" transform="translate(184.6153846153846,16)" font-family="Hanken Grotesk" font-size="11px" fill="#000" opacity="1">6,000</text><text text-anchor="middle" transform="translate(215.3846153846154,16)" font-family="Hanken Grotesk" font-size="11px" fill="#000" opacity="0">7,000</text><text text-anchor="middle" transform="translate(246.15384615384616,16)" font-family="Hanken Grotesk" font-size="11px" fill="#000" opacity="1">8,000</text><text text-anchor="middle" transform="translate(276.9230769230769,16)" font-family="Hanken Grotesk" font-size="11px" fill="#000" opacity="0">9,000</text><text text-anchor="middle" transform="translate(307.69230769230774,16)" font-family="Hanken Grotesk" font-size="11px" fill="#000" opacity="1">10,000</text><text text-anchor="middle" transform="translate(338.46153846153845,16)" font-family="Hanken Grotesk" font-size="11px" fill="#000" opacity="0">11,000</text><text text-anchor="middle" transform="translate(369.2307692307692,16)" font-family="Hanken Grotesk" font-size="11px" fill="#000" opacity="1">12,000</text><text text-anchor="middle" transform="translate(400,16)" font-family="Hanken Grotesk" font-size="11px" fill="#000" opacity="0">13,000</text><text text-anchor="middle" transform="translate(430.7692307692308,16)" font-family="Hanken Grotesk" font-size="11px" fill="#000" opacity="1">14,000</text><text text-anchor="middle" transform="translate(461.5384615384615,16)" font-family="Hanken Grotesk" font-size="11px" fill="#000" opacity="0">15,000</text><text text-anchor="middle" transform="translate(492.3076923076923,16)" font-family="Hanken Grotesk" font-size="11px" fill="#000" opacity="1">16,000</text><text text-anchor="middle" transform="translate(523.0769230769231,16)" font-family="Hanken Grotesk" font-size="11px" fill="#000" opacity="0">17,000</text><text text-anchor="middle" transform="translate(553.8461538461538,16)" font-family="Hanken Grotesk" font-size="11px" fill="#000" opacity="1">18,000</text><text text-anchor="middle" transform="translate(584.6153846153845,16)" font-family="Hanken Grotesk" font-size="11px" fill="#000" opacity="0">19,000</text><text text-anchor="middle" transform="translate(615.3846153846155,16)" font-family="Hanken Grotesk" font-size="11px" fill="#000" opacity="1">20,000</text><text text-anchor="middle" transform="translate(646.1538461538462,16)" font-family="Hanken Grotesk" font-size="11px" fill="#000" opacity="0">21,000</text><text text-anchor="middle" transform="translate(676.9230769230769,16)" font-family="Hanken Grotesk" font-size="11px" fill="#000" opacity="1">22,000</text><text text-anchor="middle" transform="translate(707.6923076923076,16)" font-family="Hanken Grotesk" font-size="11px" fill="#000" opacity="0">23,000</text><text text-anchor="middle" transform="translate(738.4615384615385,16)" font-family="Hanken Grotesk" font-size="11px" fill="#000" opacity="1">24,000</text><text text-anchor="middle" transform="translate(769.2307692307693,16)" font-family="Hanken Grotesk" font-size="11px" fill="#000" opacity="0">25,000</text><text text-anchor="end" transform="translate(800,16)" font-family="Hanken Grotesk" font-size="11px" fill="#000" opacity="1">26,000</text></g><g class="mark-rule role-axis-domain" pointer-events="none"><line transform="translate(0,0)" x2="800" y2="0" stroke="#888" stroke-width="1" opacity="1"/></g><g class="mark-text role-axis-title" pointer-events="none"><text text-anchor="middle" transform="translate(400,31)" font-family="Hanken Grotesk" font-size="12px" font-weight="600" fill="#000" opacity="1">Expenses</text></g></g><path class="foreground" aria-hidden="true" d="" pointer-events="none" display="none"/></g></g><g class="mark-group role-axis" role="graphics-symbol" aria-roledescription="axis" aria-label="Y-axis titled 'Gross Margin' for a linear scale with values from −5,000 to 40,000"><g transform="translate(0.5,0.5)"><path class="background" aria-hidden="true" d="M0,0h0v0h0Z" pointer-events="none"/><g><g class="mark-rule role-axis-tick" pointer-events="none"><line transform="translate(0,400)" x2="-5" y2="0" stroke="#888" stroke-width="1" opacity="1"/><line transform="translate(0,356)" x2="-5" y2="0" stroke="#888" stroke-width="1" opacity="1"/><line transform="translate(0,311)" x2="-5" y2="0" stroke="#888" stroke-width="1" opacity="1"/><line transform="translate(0,267)" x2="-5" y2="0" stroke="#888" stroke-width="1" opacity="1"/><line transform="translate(0,222)" x2="-5" y2="0" stroke="#888" stroke-width="1" opacity="1"/><line transform="translate(0,178)" x2="-5" y2="0" stroke="#888" stroke-width="1" opacity="1"/><line transform="translate(0,133)" x2="-5" y2="0" stroke="#888" stroke-width="1" opacity="1"/><line transform="translate(0,89)" x2="-5" y2="0" stroke="#888" stroke-width="1" opacity="1"/><line transform="translate(0,44)" x2="-5" y2="0" stroke="#888" stroke-width="1" opacity="1"/><line transform="translate(0,0)" x2="-5" y2="0" stroke="#888" stroke-width="1" opacity="1"/></g><g class="mark-text role-axis-label" pointer-events="none"><text text-anchor="end" transform="translate(-7,403)" font-family="Hanken Grotesk" font-size="11px" fill="#000" opacity="1">−5,000</text><text text-anchor="end" transform="translate(-7,358.55555555555554)" font-family="Hanken Grotesk" font-size="11px" fill="#000" opacity="1">0</text><text text-anchor="end" transform="translate(-7,314.11111111111114)" font-family="Hanken Grotesk" font-size="11px" fill="#000" opacity="1">5,000</text><text text-anchor="end" transform="translate(-7,269.6666666666667)" font-family="Hanken Grotesk" font-size="11px" fill="#000" opacity="1">10,000</text><text text-anchor="end" transform="translate(-7,225.22222222222223)" font-family="Hanken Grotesk" font-size="11px" fill="#000" opacity="1">15,000</text><text text-anchor="end" transform="translate(-7,180.77777777777777)" font-family="Hanken Grotesk" font-size="11px" fill="#000" opacity="1">20,000</text><text text-anchor="end" transform="translate(-7,136.33333333333334)" font-family="Hanken Grotesk" font-size="11px" fill="#000" opacity="1">25,000</text><text text-anchor="end" transform="translate(-7,91.88888888888889)" font-family="Hanken Grotesk" font-size="11px" fill="#000" opacity="1">30,000</text><text text-anchor="end" transform="translate(-7,47.444444444444464)" font-family="Hanken Grotesk" font-size="11px" fill="#000" opacity="1">35,000</text><text text-anchor="end" transform="translate(-7,3)" font-family="Hanken Grotesk" font-size="11px" fill="#000" opacity="1">40,000</text></g><g class="mark-rule role-axis-domain" pointer-events="none"><line transform="translate(0,400)" x2="0" y2="-400" stroke="#888" stroke-width="1" opacity="1"/></g><g class="mark-text role-axis-title" pointer-events="none"><text text-anchor="middle" transform="translate(-44.95068359375,200) rotate(-90) translate(0,-3)" font-family="Hanken Grotesk" font-size="12px" font-weight="600" fill="#000" opacity="1">Gross Margin</text></g></g><path class="foreground" aria-hidden="true" d="" pointer-events="none" display="none"/></g></g><g class="mark-symbol role-mark marks" role="graphics-object" aria-roledescription="symbol mark container"><path aria-label="Expenses: 23000; Gross Margin: −1000; department: Product; expenses: 23000; gross_margin: −1000" role="graphics-symbol" aria-roledescription="circle" transform="translate(707.6923076923076,364.44444444444446)" d="M4.472,0A4.472,4.472,0,1,1,-4.472,0A4.472,4.472,0,1,1,4.472,0" fill="#4c78a8" stroke-width="2" opacity="1"/><path aria-label="Expenses: 17200; Gross Margin: 35800; department: Sales; expenses: 17200; gross_margin: 35800" role="graphics-symbol" aria-roledescription="circle" transform="translate(529.2307692307692,37.33333333333335)" d="M4.472,0A4.472,4.472,0,1,1,-4.472,0A4.472,4.472,0,1,1,4.472,0" fill="#f58518" stroke-width="2" opacity="1"/><path aria-label="Expenses: 22000; Gross Margin: −4000; department: Product; expenses: 22000; gross_margin: −4000" role="graphics-symbol" aria-roledescription="circle" transform="translate(676.9230769230769,391.1111111111111)" d="M4.472,0A4.472,4.472,0,1,1,-4.472,0A4.472,4.472,0,1,1,4.472,0" fill="#4c78a8" stroke-width="2" opacity="1"/><path aria-label="Expenses: 15000; Gross Margin: 27000; department: Sales; expenses: 15000; gross_margin: 27000" role="graphics-symbol" aria-roledescription="circle" transform="translate(461.5384615384615,115.55555555555554)" d="M4.472,0A4.472,4.472,0,1,1,-4.472,0A4.472,4.472,0,1,1,4.472,0" fill="#f58518" stroke-width="2" opacity="1"/><path aria-label="Expenses: 16500; Gross Margin: 30500; department: Sales; expenses: 16500; gross_margin: 30500" role="graphics-symbol" aria-roledescription="circle" transform="translate(507.6923076923077,84.44444444444446)" d="M4.472,0A4.472,4.472,0,1,1,-4.472,0A4.472,4.472,0,1,1,4.472,0" fill="#f58518" stroke-width="2" opacity="1"/><path aria-label="Expenses: 24200; Gross Margin: 1800; department: Product; expenses: 24200; gross_margin: 1800" role="graphics-symbol" aria-roledescription="circle" transform="translate(744.6153846153846,339.55555555555554)" d="M4.472,0A4.472,4.472,0,1,1,-4.472,0A4.472,4.472,0,1,1,4.472,0" fill="#4c78a8" stroke-width="2" opacity="1"/></g><g class="mark-group role-legend" role="graphics-symbol" aria-roledescription="legend" aria-label="Symbol legend titled 'department' for fill color with 2 values: Product, Sales"><g transform="translate(818,0)"><path class="background" aria-hidden="true" d="M0,0h66v41h-66Z" pointer-events="none"/><g><g class="mark-group role-legend-entry"><g transform="translate(0,17)"><path class="background" aria-hidden="true" d="M0,0h0v0h0Z" pointer-events="none"/><g><g class="mark-group role-scope department_legend_entries" role="graphics-object" aria-roledescription="group mark container"><g transform="translate(0,0)"><path class="background" aria-hidden="true" d="M0,0h53.9091796875v11h-53.9091796875Z" opacity="1"/><g><g class="mark-symbol role-legend-symbol department_legend_symbols"><path transform="translate(6,6)" d="M5,0A5,5,0,1,1,-5,0A5,5,0,1,1,5,0" fill="#4c78a8" stroke-width="1.5" opacity="1"/></g><g class="mark-text role-legend-label department_legend_labels"><text text-anchor="start" transform="translate(16,9)" font-family="Hanken Grotesk" font-size="11px" fill="#000" opacity="1">Product</text></g></g><path class="foreground" aria-hidden="true" d="" display="none"/></g><g transform="translate(0,13)"><path class="background" aria-hidden="true" d="M0,0h53.9091796875v11h-53.9091796875Z" opacity="1"/><g><g class="mark-symbol role-legend-symbol department_legend_symbols"><path transform="translate(6,6)" d="M5,0A5,5,0,1,1,-5,0A5,5,0,1,1,5,0" fill="#f58518" stroke-width="1.5" opacity="1"/></g><g class="mark-text role-legend-label department_legend_labels"><text text-anchor="start" transform="translate(16,9)" font-family="Hanken Grotesk" font-size="11px" fill="#000" opacity="1">Sales</text></g></g><path class="foreground" aria-hidden="true" d="" display="none"/></g></g></g><path class="foreground" aria-hidden="true" d="" pointer-events="none" display="none"/></g></g><g class="mark-text role-legend-title" pointer-events="none"><text text-anchor="start" transform="translate(0,9)" font-family="Hanken Grotesk" font-size="12px" font-weight="600" fill="#000" opacity="1">department</text></g></g><path class="foreground" aria-hidden="true" d="" pointer-events="none" display="none"/></g></g><g class="mark-group role-title"><g transform="translate(400,-25)"><path class="background" aria-hidden="true" d="M0,0h0v0h0Z" pointer-events="none"/><g><g class="mark-text role-title-text" role="graphics-symbol" aria-roledescription="title" aria-label="Title text 'Margin vs Expenses'" pointer-events="none"><text text-anchor="middle" transform="translate(0,12)" font-family="Hanken Grotesk" font-size="15px" font-weight="600" fill="#000" opacity="1">Margin vs Expenses</text></g></g><path class="foreground" aria-hidden="true" d="" pointer-events="none" display="none"/></g></g></g><path class="foreground" aria-hidden="true" d="" display="none"/></g></g></g></svg>