<svg width="1800" height="1100" viewBox="0 0 1800 1100" fill="none" xmlns="http://www.w3.org/2000/svg">
  <rect width="1800" height="1100" fill="#ECF5F1"/>
  <rect x="112" y="104" width="1576" height="892" rx="28" fill="#FBFCFB"/>
  <rect x="112" y="104" width="1576" height="92" rx="28" fill="#10201D"/>
  <rect x="112" y="164" width="1576" height="32" fill="#10201D"/>
  <circle cx="168" cy="150" r="12" fill="#E25544"/>
  <circle cx="206" cy="150" r="12" fill="#D79B19"/>
  <circle cx="244" cy="150" r="12" fill="#4DD7C8"/>
  <rect x="302" y="136" width="252" height="28" rx="14" fill="#1D3733"/>
  <rect x="1300" y="136" width="246" height="28" rx="14" fill="#1D3733"/>
  <rect x="236" y="260" width="348" height="166" rx="12" fill="#F4F8F6" stroke="#D7E5E0"/>
  <rect x="236" y="462" width="348" height="382" rx="12" fill="#F4F8F6" stroke="#D7E5E0"/>
  <rect x="632" y="260" width="414" height="276" rx="12" fill="#F4F8F6" stroke="#D7E5E0"/>
  <rect x="632" y="580" width="414" height="264" rx="12" fill="#F4F8F6" stroke="#D7E5E0"/>
  <rect x="1094" y="260" width="470" height="584" rx="12" fill="#F4F8F6" stroke="#D7E5E0"/>
  <rect x="276" y="300" width="162" height="20" rx="10" fill="#80918D"/>
  <rect x="276" y="338" width="228" height="48" rx="12" fill="#0F766E"/>
  <rect x="276" y="502" width="168" height="20" rx="10" fill="#80918D"/>
  <path d="M276 758C320 718 344 664 392 688C440 712 462 640 510 596" stroke="#2563EB" stroke-width="12" stroke-linecap="round"/>
  <path d="M276 786C330 756 358 730 400 740C450 752 474 708 532 690" stroke="#E25544" stroke-width="10" stroke-linecap="round"/>
  <rect x="672" y="300" width="178" height="20" rx="10" fill="#80918D"/>
  <rect x="700" y="452" width="34" height="44" rx="8" fill="#4DD7C8"/>
  <rect x="770" y="402" width="34" height="94" rx="8" fill="#4DD7C8"/>
  <rect x="840" y="362" width="34" height="134" rx="8" fill="#4DD7C8"/>
  <rect x="910" y="330" width="34" height="166" rx="8" fill="#4DD7C8"/>
  <rect x="980" y="382" width="34" height="114" rx="8" fill="#4DD7C8"/>
  <rect x="672" y="620" width="150" height="20" rx="10" fill="#80918D"/>
  <circle cx="730" cy="746" r="20" fill="#0F766E"/>
  <circle cx="808" cy="700" r="14" fill="#2563EB"/>
  <circle cx="874" cy="764" r="18" fill="#E25544"/>
  <circle cx="942" cy="682" r="12" fill="#D79B19"/>
  <circle cx="990" cy="760" r="16" fill="#0F766E"/>
  <rect x="1134" y="300" width="198" height="20" rx="10" fill="#80918D"/>
  <rect x="1134" y="370" width="348" height="18" rx="9" fill="#D7E5E0"/>
  <rect x="1134" y="370" width="268" height="18" rx="9" fill="#0F766E"/>
  <rect x="1134" y="438" width="348" height="18" rx="9" fill="#D7E5E0"/>
  <rect x="1134" y="438" width="204" height="18" rx="9" fill="#2563EB"/>
  <rect x="1134" y="506" width="348" height="18" rx="9" fill="#D7E5E0"/>
  <rect x="1134" y="506" width="302" height="18" rx="9" fill="#E25544"/>
  <rect x="1134" y="574" width="348" height="18" rx="9" fill="#D7E5E0"/>
  <rect x="1134" y="574" width="176" height="18" rx="9" fill="#D79B19"/>
  <rect x="1134" y="682" width="144" height="20" rx="10" fill="#80918D"/>
  <path d="M1140 788C1198 718 1260 836 1322 758C1380 684 1452 734 1518 662" stroke="#0F766E" stroke-width="14" stroke-linecap="round"/>
  <path d="M1140 822C1192 792 1258 794 1324 820C1392 848 1454 796 1518 806" stroke="#2563EB" stroke-width="10" stroke-linecap="round"/>
  <rect x="112" y="104" width="1576" height="892" rx="28" stroke="#CFE0DA" stroke-width="3"/>
</svg>
